<svg width="344" height="344" viewBox="0 0 344 344" fill="none" xmlns="http://www.w3.org/2000/svg">
<rect x="0.188416" y="0.663086" width="343.279" height="343.28" rx="12" fill="white"/>
<path d="M80.0834 276.949V285.247H71.743V276.949H80.0834ZM80.0834 268.652V276.949H71.743V268.652H80.0834ZM80.0834 260.354V268.652H71.743V260.354H80.0834ZM80.0834 252.057V260.354H71.743V252.057H80.0834ZM80.0834 243.759V252.057H71.743V243.759H80.0834ZM80.0834 235.461V243.759H71.743V235.461H80.0834ZM80.0834 227.164V235.461H71.743V227.164H80.0834ZM80.0834 218.866V227.164H71.743V218.866H80.0834ZM80.0834 210.568V218.866H71.743V210.568H80.0834ZM80.0834 202.271V210.568H71.743V202.271H80.0834ZM80.0834 193.973V202.271H71.743V193.973H80.0834ZM80.0834 185.676V193.973H71.743V185.676H80.0834ZM80.0834 177.378V185.676H71.743V177.378H80.0834ZM80.0834 169.08V177.378H71.743V169.08H80.0834ZM80.0834 160.783V169.08H71.743V160.783H80.0834ZM88.4238 160.783V169.08H80.0834V160.783H88.4238ZM88.4238 169.08V177.378H80.0834V169.08H88.4238ZM88.4238 177.378V185.676H80.0834V177.378H88.4238ZM88.4238 185.676V193.973H80.0834V185.676H88.4238ZM88.4238 193.973V202.271H80.0834V193.973H88.4238ZM88.4238 202.271V210.568H80.0834V202.271H88.4238ZM88.4238 210.568V218.866H80.0834V210.568H88.4238ZM96.7643 218.866V227.164H88.4238V218.866H96.7643ZM96.7643 227.164V235.461H88.4238V227.164H96.7643ZM96.7643 235.461V243.759H88.4238V235.461H96.7643ZM96.7643 243.759V252.057H88.4238V243.759H96.7643ZM96.7643 252.057V260.354H88.4238V252.057H96.7643ZM96.7643 260.354V268.652H88.4238V260.354H96.7643ZM96.7643 268.652V276.949H88.4238V268.652H96.7643ZM96.7643 276.949V285.247H88.4238V276.949H96.7643ZM105.105 276.949V285.247H96.7643V276.949H105.105ZM113.445 276.949V285.247H105.105V276.949H113.445ZM113.445 268.652V276.949H105.105V268.652H113.445ZM113.445 260.354V268.652H105.105V260.354H113.445ZM113.445 252.057V260.354H105.105V252.057H113.445ZM113.445 243.759V252.057H105.105V243.759H113.445ZM113.445 235.461V243.759H105.105V235.461H113.445ZM113.445 227.164V235.461H105.105V227.164H113.445ZM113.445 218.866V227.164H105.105V218.866H113.445ZM105.105 218.866V227.164H96.7643V218.866H105.105ZM105.105 210.568V218.866H96.7643V210.568H105.105ZM105.105 227.164V235.461H96.7643V227.164H105.105ZM105.105 235.461V243.759H96.7643V235.461H105.105ZM105.105 243.759V252.057H96.7643V243.759H105.105ZM105.105 252.057V260.354H96.7643V252.057H105.105ZM105.105 260.354V268.652H96.7643V260.354H105.105ZM105.105 268.652V276.949H96.7643V268.652H105.105ZM88.4238 276.949V285.247H80.0834V276.949H88.4238ZM88.4238 268.652V276.949H80.0834V268.652H88.4238ZM88.4238 260.354V268.652H80.0834V260.354H88.4238ZM88.4238 252.057V260.354H80.0834V252.057H88.4238ZM88.4238 243.759V252.057H80.0834V243.759H88.4238ZM88.4238 235.461V243.759H80.0834V235.461H88.4238ZM88.4238 227.164V235.461H80.0834V227.164H88.4238ZM88.4238 218.866V227.164H80.0834V218.866H88.4238ZM80.0834 77.8066V86.1043H71.743V77.8066H80.0834ZM80.0834 86.1043V94.4019H71.743V86.1043H80.0834ZM80.0834 94.4019V102.7H71.743V94.4019H80.0834ZM80.0834 102.7V110.997H71.743V102.7H80.0834ZM80.0834 110.997V119.295H71.743V110.997H80.0834ZM80.0834 119.295V127.592H71.743V119.295H80.0834ZM80.0834 127.592V135.89H71.743V127.592H80.0834ZM80.0834 135.89V144.188H71.743V135.89H80.0834ZM80.0834 144.188V152.485H71.743V144.188H80.0834ZM80.0834 152.485V160.783H71.743V152.485H80.0834ZM105.105 77.8066V86.1043H96.7643V77.8066H105.105ZM105.105 86.1043V94.4019H96.7643V86.1043H105.105ZM105.105 94.4019V102.7H96.7643V94.4019H105.105ZM105.105 102.7V110.997H96.7643V102.7H105.105ZM105.105 110.997V119.295H96.7643V110.997H105.105ZM105.105 119.295V127.592H96.7643V119.295H105.105ZM105.105 135.89V144.188H96.7643V135.89H105.105ZM105.105 144.188V152.485H96.7643V144.188H105.105ZM105.105 152.485V160.783H96.7643V152.485H105.105ZM105.105 160.783V169.08H96.7643V160.783H105.105ZM105.105 169.08V177.378H96.7643V169.08H105.105ZM105.105 177.378V185.676H96.7643V177.378H105.105ZM105.105 185.676V193.973H96.7643V185.676H105.105ZM113.445 193.973V202.271H105.105V193.973H113.445ZM113.445 202.271V210.568H105.105V202.271H113.445ZM113.445 210.568V218.866H105.105V210.568H113.445ZM113.445 185.676V193.973H105.105V185.676H113.445ZM113.445 177.378V185.676H105.105V177.378H113.445ZM113.445 169.08V177.378H105.105V169.08H113.445ZM113.445 160.783V169.08H105.105V160.783H113.445ZM113.445 152.485V160.783H105.105V152.485H113.445ZM113.445 144.188V152.485H105.105V144.188H113.445ZM113.445 135.89V144.188H105.105V135.89H113.445ZM113.445 127.592V135.89H105.105V127.592H113.445ZM113.445 119.295V127.592H105.105V119.295H113.445ZM113.445 110.997V119.295H105.105V110.997H113.445ZM105.105 127.592V135.89H96.7643V127.592H105.105ZM113.445 102.7V110.997H105.105V102.7H113.445ZM113.445 94.4019V102.7H105.105V94.4019H113.445ZM113.445 86.1043V94.4019H105.105V86.1043H113.445ZM113.445 77.8066V86.1043H105.105V77.8066H113.445ZM96.7643 77.8066V86.1043H88.4238V77.8066H96.7643ZM88.4238 77.8066V86.1043H80.0834V77.8066H88.4238ZM88.4238 86.1043V94.4019H80.0834V86.1043H88.4238ZM96.7643 86.1043V94.4019H88.4238V86.1043H96.7643ZM96.7643 94.4019V102.7H88.4238V94.4019H96.7643ZM96.7643 102.7V110.997H88.4238V102.7H96.7643ZM96.7643 110.997V119.295H88.4238V110.997H96.7643ZM96.7643 119.295V127.592H88.4238V119.295H96.7643ZM96.7643 127.592V135.89H88.4238V127.592H96.7643ZM96.7643 135.89V144.188H88.4238V135.89H96.7643ZM88.4238 144.188V152.485H80.0834V144.188H88.4238ZM88.4238 152.485V160.783H80.0834V152.485H88.4238ZM88.4238 135.89V144.188H80.0834V135.89H88.4238ZM88.4238 127.592V135.89H80.0834V127.592H88.4238ZM88.4238 119.295V127.592H80.0834V119.295H88.4238ZM88.4238 110.997V119.295H80.0834V110.997H88.4238ZM88.4238 102.7V110.997H80.0834V102.7H88.4238ZM88.4238 94.4019V102.7H80.0834V94.4019H88.4238ZM96.7643 144.188V152.485H88.4238V144.188H96.7643ZM96.7643 152.485V160.783H88.4238V152.485H96.7643ZM96.7643 160.783V169.08H88.4238V160.783H96.7643ZM96.7643 169.08V177.378H88.4238V169.08H96.7643ZM96.7643 177.378V185.676H88.4238V177.378H96.7643ZM96.7643 185.676V193.973H88.4238V185.676H96.7643ZM96.7643 193.973V202.271H88.4238V193.973H96.7643ZM96.7643 202.271V210.568H88.4238V202.271H96.7643ZM96.7643 210.568V218.866H88.4238V210.568H96.7643ZM105.105 202.271V210.568H96.7643V202.271H105.105ZM105.105 193.973V202.271H96.7643V193.973H105.105ZM238.551 77.8066V86.1043H230.211V77.8066H238.551ZM238.551 86.1043V94.4019H230.211V86.1043H238.551ZM238.551 94.4019V102.7H230.211V94.4019H238.551ZM238.551 110.997V119.295H230.211V110.997H238.551ZM238.551 119.295V127.592H230.211V119.295H238.551ZM238.551 127.592V135.89H230.211V127.592H238.551ZM238.551 135.89V144.188H230.211V135.89H238.551ZM238.551 144.188V152.485H230.211V144.188H238.551ZM238.551 152.485V160.783H230.211V152.485H238.551ZM238.551 160.783V169.08H230.211V160.783H238.551ZM246.892 169.08V177.378H238.551V169.08H246.892ZM246.892 177.378V185.676H238.551V177.378H246.892ZM246.892 185.676V193.973H238.551V185.676H246.892ZM246.892 193.973V202.271H238.551V193.973H246.892ZM246.892 202.271V210.568H238.551V202.271H246.892ZM246.892 210.568V218.866H238.551V210.568H246.892ZM255.232 210.568V218.866H246.892V210.568H255.232ZM255.232 218.866V227.164H246.892V218.866H255.232ZM255.232 227.164V235.461H246.892V227.164H255.232ZM255.232 235.461V243.759H246.892V235.461H255.232ZM255.232 243.759V252.057H246.892V243.759H255.232ZM255.232 252.057V260.354H246.892V252.057H255.232ZM255.232 260.354V268.652H246.892V260.354H255.232ZM255.232 268.652V276.949H246.892V268.652H255.232ZM255.232 276.949V285.247H246.892V276.949H255.232ZM246.892 276.949V285.247H238.551V276.949H246.892ZM246.892 268.652V276.949H238.551V268.652H246.892ZM246.892 260.354V268.652H238.551V260.354H246.892ZM246.892 252.057V260.354H238.551V252.057H246.892ZM246.892 243.759V252.057H238.551V243.759H246.892ZM246.892 235.461V243.759H238.551V235.461H246.892ZM246.892 227.164V235.461H238.551V227.164H246.892ZM238.551 227.164V235.461H230.211V227.164H238.551ZM238.551 218.866V227.164H230.211V218.866H238.551ZM246.892 218.866V227.164H238.551V218.866H246.892ZM238.551 169.08V177.378H230.211V169.08H238.551ZM238.551 177.378V185.676H230.211V177.378H238.551ZM238.551 185.676V193.973H230.211V185.676H238.551ZM238.551 193.973V202.271H230.211V193.973H238.551ZM238.551 202.271V210.568H230.211V202.271H238.551ZM238.551 210.568V218.866H230.211V210.568H238.551ZM238.551 102.7V110.997H230.211V102.7H238.551ZM238.551 235.461V243.759H230.211V235.461H238.551ZM238.551 243.759V252.057H230.211V243.759H238.551ZM238.551 252.057V260.354H230.211V252.057H238.551ZM238.551 260.354V268.652H230.211V260.354H238.551ZM238.551 268.652V276.949H230.211V268.652H238.551ZM238.551 276.949V285.247H230.211V276.949H238.551ZM263.573 276.949V285.247H255.232V276.949H263.573ZM271.913 276.949V285.247H263.573V276.949H271.913ZM271.913 268.652V276.949H263.573V268.652H271.913ZM271.913 260.354V268.652H263.573V260.354H271.913ZM271.913 252.057V260.354H263.573V252.057H271.913ZM271.913 243.759V252.057H263.573V243.759H271.913ZM271.913 235.461V243.759H263.573V235.461H271.913ZM271.913 227.164V235.461H263.573V227.164H271.913ZM271.913 218.866V227.164H263.573V218.866H271.913ZM271.913 210.568V218.866H263.573V210.568H271.913ZM271.913 202.271V210.568H263.573V202.271H271.913ZM271.913 193.973V202.271H263.573V193.973H271.913ZM271.913 185.676V193.973H263.573V185.676H271.913ZM271.913 177.378V185.676H263.573V177.378H271.913ZM271.913 169.08V177.378H263.573V169.08H271.913ZM271.913 160.783V169.08H263.573V160.783H271.913ZM271.913 152.485V160.783H263.573V152.485H271.913ZM271.913 144.188V152.485H263.573V144.188H271.913ZM271.913 135.89V144.188H263.573V135.89H271.913ZM271.913 127.592V135.89H263.573V127.592H271.913ZM246.892 77.8066V86.1043H238.551V77.8066H246.892ZM255.232 77.8066V86.1043H246.892V77.8066H255.232ZM263.573 77.8066V86.1043H255.232V77.8066H263.573ZM271.913 77.8066V86.1043H263.573V77.8066H271.913ZM271.913 86.1043V94.4019H263.573V86.1043H271.913ZM271.913 94.4019V102.7H263.573V94.4019H271.913ZM271.913 102.7V110.997H263.573V102.7H271.913ZM271.913 110.997V119.295H263.573V110.997H271.913ZM271.913 119.295V127.592H263.573V119.295H271.913ZM246.892 86.1043V94.4019H238.551V86.1043H246.892ZM255.232 86.1043V94.4019H246.892V86.1043H255.232ZM263.573 86.1043V94.4019H255.232V86.1043H263.573ZM263.573 94.4019V102.7H255.232V94.4019H263.573ZM263.573 102.7V110.997H255.232V102.7H263.573ZM263.573 110.997V119.295H255.232V110.997H263.573ZM263.573 119.295V127.592H255.232V119.295H263.573ZM255.232 119.295V127.592H246.892V119.295H255.232ZM255.232 110.997V119.295H246.892V110.997H255.232ZM255.232 102.7V110.997H246.892V102.7H255.232ZM255.232 94.4019V102.7H246.892V94.4019H255.232ZM246.892 94.4019V102.7H238.551V94.4019H246.892ZM246.892 102.7V110.997H238.551V102.7H246.892ZM246.892 110.997V119.295H238.551V110.997H246.892ZM246.892 119.295V127.592H238.551V119.295H246.892ZM246.892 127.592V135.89H238.551V127.592H246.892ZM246.892 135.89V144.188H238.551V135.89H246.892ZM246.892 144.188V152.485H238.551V144.188H246.892ZM246.892 152.485V160.783H238.551V152.485H246.892ZM255.232 152.485V160.783H246.892V152.485H255.232ZM255.232 144.188V152.485H246.892V144.188H255.232ZM255.232 135.89V144.188H246.892V135.89H255.232ZM255.232 127.592V135.89H246.892V127.592H255.232ZM263.573 127.592V135.89H255.232V127.592H263.573ZM263.573 135.89V144.188H255.232V135.89H263.573ZM263.573 144.188V152.485H255.232V144.188H263.573ZM263.573 152.485V160.783H255.232V152.485H263.573ZM263.573 160.783V169.08H255.232V160.783H263.573ZM263.573 169.08V177.378H255.232V169.08H263.573ZM263.573 177.378V185.676H255.232V177.378H263.573ZM263.573 185.676V193.973H255.232V185.676H263.573ZM263.573 193.973V202.271H255.232V193.973H263.573ZM263.573 202.271V210.568H255.232V202.271H263.573ZM255.232 202.271V210.568H246.892V202.271H255.232ZM255.232 193.973V202.271H246.892V193.973H255.232ZM255.232 185.676V193.973H246.892V185.676H255.232ZM255.232 177.378V185.676H246.892V177.378H255.232ZM255.232 169.08V177.378H246.892V169.08H255.232ZM246.892 160.783V169.08H238.551V160.783H246.892ZM255.232 160.783V169.08H246.892V160.783H255.232ZM263.573 210.568V218.866H255.232V210.568H263.573ZM263.573 218.866V227.164H255.232V218.866H263.573ZM263.573 227.164V235.461H255.232V227.164H263.573ZM263.573 235.461V243.759H255.232V235.461H263.573ZM263.573 243.759V252.057H255.232V243.759H263.573ZM263.573 252.057V260.354H255.232V252.057H263.573ZM263.573 260.354V268.652H255.232V260.354H263.573ZM263.573 268.652V276.949H255.232V268.652H263.573ZM171.828 177.378V185.676H163.488V177.378H171.828ZM171.828 169.08V177.378H163.488V169.08H171.828ZM171.828 160.783V169.08H163.488V160.783H171.828ZM171.828 152.485V160.783H163.488V152.485H171.828ZM171.828 144.188V152.485H163.488V144.188H171.828ZM171.828 135.89V144.188H163.488V135.89H171.828ZM171.828 185.676V193.973H163.488V185.676H171.828ZM188.509 127.592V135.89H180.169V127.592H188.509ZM196.849 119.295V127.592H188.509V119.295H196.849ZM205.19 110.997V119.295H196.849V110.997H205.19ZM213.53 102.7V110.997H205.19V102.7H213.53ZM163.488 127.592V135.89H155.147V127.592H163.488ZM155.147 119.295V127.592H146.807V119.295H155.147ZM146.807 110.997V119.295H138.466V110.997H146.807ZM138.466 102.7V110.997H130.126V102.7H138.466ZM188.509 177.378V185.676H180.169V177.378H188.509ZM196.849 169.08V177.378H188.509V169.08H196.849ZM205.19 160.783V169.08H196.849V160.783H205.19ZM213.53 152.485V160.783H205.19V152.485H213.53ZM163.488 177.378V185.676H155.147V177.378H163.488ZM155.147 169.08V177.378H146.807V169.08H155.147ZM146.807 160.783V169.08H138.466V160.783H146.807ZM138.466 152.485V160.783H130.126V152.485H138.466ZM121.786 86.1043V94.4019H113.445V86.1043H121.786ZM130.126 94.4019V102.7H121.786V94.4019H130.126ZM221.871 94.4019V102.7H213.53V94.4019H221.871ZM230.211 86.1043V94.4019H221.871V86.1043H230.211ZM130.126 119.295V127.592H121.786V119.295H130.126ZM130.126 144.188V152.485H121.786V144.188H130.126ZM130.126 135.89V144.188H121.786V135.89H130.126ZM121.786 135.89V144.188H113.445V135.89H121.786ZM221.871 144.188V152.485H213.53V144.188H221.871ZM230.211 135.89V144.188H221.871V135.89H230.211ZM230.211 127.592V135.89H221.871V127.592H230.211ZM230.211 119.295V127.592H221.871V119.295H230.211ZM230.211 110.997V119.295H221.871V110.997H230.211ZM230.211 102.7V110.997H221.871V102.7H230.211ZM230.211 94.4019V102.7H221.871V94.4019H230.211ZM221.871 102.7V110.997H213.53V102.7H221.871ZM221.871 110.997V119.295H213.53V110.997H221.871ZM221.871 119.295V127.592H213.53V119.295H221.871ZM221.871 127.592V135.89H213.53V127.592H221.871ZM221.871 135.89V144.188H213.53V135.89H221.871ZM213.53 110.997V119.295H205.19V110.997H213.53ZM213.53 119.295V127.592H205.19V119.295H213.53ZM213.53 127.592V135.89H205.19V127.592H213.53ZM213.53 135.89V144.188H205.19V135.89H213.53ZM213.53 144.188V152.485H205.19V144.188H213.53ZM205.19 119.295V127.592H196.849V119.295H205.19ZM205.19 127.592V135.89H196.849V127.592H205.19ZM205.19 135.89V144.188H196.849V135.89H205.19ZM205.19 144.188V152.485H196.849V144.188H205.19ZM205.19 152.485V160.783H196.849V152.485H205.19ZM196.849 127.592V135.89H188.509V127.592H196.849ZM196.849 135.89V144.188H188.509V135.89H196.849ZM196.849 144.188V152.485H188.509V144.188H196.849ZM196.849 152.485V160.783H188.509V152.485H196.849ZM196.849 160.783V169.08H188.509V160.783H196.849ZM188.509 135.89V144.188H180.169V135.89H188.509ZM188.509 144.188V152.485H180.169V144.188H188.509ZM188.509 152.485V160.783H180.169V152.485H188.509ZM188.509 160.783V169.08H180.169V160.783H188.509ZM188.509 169.08V177.378H180.169V169.08H188.509ZM163.488 169.08V177.378H155.147V169.08H163.488ZM163.488 160.783V169.08H155.147V160.783H163.488ZM155.147 160.783V169.08H146.807V160.783H155.147ZM155.147 152.485V160.783H146.807V152.485H155.147ZM146.807 152.485V160.783H138.466V152.485H146.807ZM146.807 144.188V152.485H138.466V144.188H146.807ZM138.466 144.188V152.485H130.126V144.188H138.466ZM138.466 135.89V144.188H130.126V135.89H138.466ZM130.126 127.592V135.89H121.786V127.592H130.126ZM121.786 127.592V135.89H113.445V127.592H121.786ZM121.786 119.295V127.592H113.445V119.295H121.786ZM121.786 110.997V119.295H113.445V110.997H121.786ZM121.786 102.7V110.997H113.445V102.7H121.786ZM121.786 94.4019V102.7H113.445V94.4019H121.786ZM130.126 102.7V110.997H121.786V102.7H130.126ZM130.126 110.997V119.295H121.786V110.997H130.126ZM138.466 110.997V119.295H130.126V110.997H138.466ZM138.466 119.295V127.592H130.126V119.295H138.466ZM146.807 119.295V127.592H138.466V119.295H146.807ZM146.807 127.592V135.89H138.466V127.592H146.807ZM155.147 127.592V135.89H146.807V127.592H155.147ZM155.147 135.89V144.188H146.807V135.89H155.147ZM163.488 135.89V144.188H155.147V135.89H163.488ZM163.488 144.188V152.485H155.147V144.188H163.488ZM163.488 152.485V160.783H155.147V152.485H163.488ZM155.147 144.188V152.485H146.807V144.188H155.147ZM146.807 135.89V144.188H138.466V135.89H146.807ZM138.466 127.592V135.89H130.126V127.592H138.466ZM180.169 135.89V144.188H171.828V135.89H180.169ZM180.169 144.188V152.485H171.828V144.188H180.169ZM180.169 152.485V160.783H171.828V152.485H180.169ZM180.169 160.783V169.08H171.828V160.783H180.169ZM180.169 169.08V177.378H171.828V169.08H180.169ZM180.169 177.378V185.676H171.828V177.378H180.169ZM180.169 185.676V193.973H171.828V185.676H180.169Z" fill="black"/>
</svg>
